<svg xmlns="http://www.w3.org/2000/svg" viewBox="0 0 1440 380" preserveAspectRatio="none">
  <defs>
    <linearGradient id="nearRock" x1="0" y1="0" x2="0" y2="1">
      <stop offset="0%" stop-color="#142433"/>
      <stop offset="100%" stop-color="#070d14"/>
    </linearGradient>
  </defs>
  <path fill="url(#nearRock)" d="M0 380 L0 328 C36 318 68 332 102 322 C132 312 162 332 198 322 C228 312 258 332 295 322 C325 312 355 332 392 325 C422 318 452 335 488 328 C518 322 548 338 585 332 C615 328 645 342 682 338 C712 335 742 348 778 345 C808 342 838 352 875 348 C905 345 935 355 972 352 C1002 350 1032 358 1068 355 C1098 352 1128 362 1165 358 C1195 355 1225 365 1262 362 C1292 360 1322 368 1358 365 C1385 362 1412 372 1440 368 L1440 380 Z"/>
  <path fill="#1a2e22" opacity="0.55" d="M0 380 L0 352 C120 345 240 358 360 350 C480 342 600 355 720 348 C840 342 960 355 1080 348 C1200 342 1320 355 1440 348 L1440 380 Z"/>
  <path fill="#9eb4c8" opacity="0.09" d="M0 328 C36 318 68 332 102 322 L110 315 C140 308 170 322 200 312 L210 308 C240 302 270 318 300 310 L312 305 C342 298 372 315 402 308 L412 302 C442 298 472 312 502 305 L512 300 C542 295 572 308 602 302 L612 298 C642 292 672 305 702 298 L712 295 C742 290 772 302 802 295 L812 292 C842 288 872 300 902 292 L912 288 C942 285 972 298 1002 290 L1012 288 C1042 282 1072 295 1102 288 L1112 285 C1142 282 1172 295 1202 288 L1212 285 C1242 282 1272 295 1302 288 L1312 285 C1342 282 1372 295 1402 288 L1412 285 C1425 283 1432 295 1440 292 L1440 335 C1395 348 1350 338 1305 350 C1260 362 1215 338 1170 350 C1125 362 1080 338 1035 350 C990 362 945 338 900 350 C855 362 810 338 765 350 C720 362 675 338 630 350 C585 362 540 338 495 350 C450 362 405 338 360 350 C315 362 270 338 225 350 C180 362 135 338 90 350 C60 358 30 345 0 352 Z"/>
</svg>
