<svg xmlns="http://www.w3.org/2000/svg" viewBox="0 0 1440 420" preserveAspectRatio="none">
  <defs>
    <linearGradient id="midRock" x1="0" y1="0" x2="0" y2="1">
      <stop offset="0%" stop-color="#2d4a63"/>
      <stop offset="100%" stop-color="#152a3d"/>
    </linearGradient>
  </defs>
  <path fill="url(#midRock)" d="M0 420 L0 340 C48 322 88 348 132 328 C172 308 208 338 252 318 C292 298 328 328 372 305 C412 282 452 312 498 288 C538 268 578 298 622 278 C662 258 702 288 748 268 C788 248 828 278 872 258 C912 238 952 268 998 248 C1038 228 1078 258 1122 242 C1162 225 1202 252 1248 238 C1288 225 1328 252 1372 242 C1395 238 1418 258 1440 252 L1440 420 Z"/>
  <path fill="#d8e6f5" opacity="0.2" d="M0 340 C48 322 88 348 132 328 L142 318 C178 305 210 325 248 308 L262 298 C298 282 332 305 368 285 L382 275 C418 258 452 278 488 262 L502 252 C538 238 572 258 608 242 L622 232 C658 218 692 238 728 225 L742 218 C778 205 812 228 848 212 L862 205 C898 192 932 215 968 200 L982 192 C1018 182 1052 202 1088 188 L1102 182 C1138 172 1172 195 1208 182 L1222 175 C1258 168 1292 188 1328 178 L1342 172 C1378 165 1410 188 1440 178 L1440 255 C1405 268 1372 258 1338 272 C1302 288 1268 265 1232 278 C1195 292 1162 268 1125 282 C1088 295 1055 272 1018 285 C982 298 948 275 912 288 C875 302 842 278 805 292 C768 305 735 282 698 295 C662 308 628 285 592 298 C555 312 522 288 485 302 C448 315 415 292 378 305 C342 318 308 295 272 308 C235 322 202 298 165 312 C128 325 95 302 58 315 C38 322 18 335 0 348 Z"/>
</svg>
