<svg xmlns="http://www.w3.org/2000/svg" viewBox="0 0 1440 480" preserveAspectRatio="none">
  <defs>
    <linearGradient id="rock" x1="0" y1="0" x2="0" y2="1">
      <stop offset="0%" stop-color="#5b7ea5"/>
      <stop offset="55%" stop-color="#3d5f82"/>
      <stop offset="100%" stop-color="#243d58"/>
    </linearGradient>
    <linearGradient id="snowCap" x1="0" y1="0" x2="0" y2="1">
      <stop offset="0%" stop-color="#f2f7ff"/>
      <stop offset="100%" stop-color="#b8cce8"/>
    </linearGradient>
  </defs>
  <!-- Full mass: smooth ridgeline (not spike triangles) -->
  <path fill="url(#rock)" d="M0 480 L0 310 C40 298 72 288 108 302 C142 268 178 252 210 272 C248 228 292 248 332 218 C368 188 402 208 438 182 C478 148 518 178 558 152 C598 118 638 152 682 128 C722 98 758 132 802 108 C848 82 888 118 932 92 C978 68 1018 108 1062 88 C1108 68 1148 112 1192 98 C1232 82 1272 118 1312 102 C1352 88 1388 122 1440 108 L1440 480 Z"/>
  <!-- Snow along upper slopes (wide bands hugging peaks) -->
  <path fill="url(#snowCap)" opacity="0.38" d="M0 310 C40 298 72 288 108 302 L118 292 C150 275 185 265 215 278 L228 262 C265 242 305 255 338 228 L352 218 C385 198 420 208 450 188 L465 178 C498 158 535 172 568 148 L585 138 C618 118 655 138 688 118 L705 108 C738 92 772 112 805 95 L822 88 C855 72 888 95 922 78 L938 72 C972 58 1005 82 1038 68 L1055 62 C1088 52 1122 78 1155 65 L1172 60 C1205 52 1238 78 1272 68 L1288 62 C1322 55 1355 82 1390 72 L1405 68 C1420 65 1435 88 1440 85 L1440 175 C1395 195 1355 185 1315 205 C1275 225 1235 198 1195 218 C1155 238 1115 208 1075 228 C1035 248 995 215 955 235 C915 255 875 222 835 242 C795 262 755 232 715 252 C675 272 635 242 595 262 C555 282 515 252 475 272 C435 292 395 262 355 282 C315 302 275 272 235 292 C195 312 155 282 115 302 C75 322 35 295 0 315 Z"/>
</svg>
