<svg xmlns="http://www.w3.org/2000/svg" viewBox="0 0 1440 380" preserveAspectRatio="none">
  <path fill="#1a3048" d="M0 380 L0 322 L130 292 L210 242 L310 288 L430 218 L550 278 L670 212 L720 232 L790 198 L910 268 L1030 226 L1150 282 L1270 238 L1310 258 L1440 312 L1440 380 Z"/>
  <g fill="#dce8f5" opacity="0.16">
    <path d="M198 244 L210 216 L222 244 Z"/>
    <path d="M418 220 L430 192 L442 220 Z"/>
    <path d="M538 280 L550 254 L562 280 Z"/>
    <path d="M658 214 L670 186 L682 214 Z"/>
    <path d="M708 234 L720 206 L732 234 Z"/>
    <path d="M778 200 L790 172 L802 200 Z"/>
    <path d="M1018 228 L1030 200 L1042 228 Z"/>
    <path d="M1138 284 L1150 256 L1162 284 Z"/>
    <path d="M1258 240 L1270 212 L1282 240 Z"/>
    <path d="M1298 260 L1310 232 L1322 260 Z"/>
  </g>
</svg>
